<svg fill="#cd7a2d" version="1.1" id="Capa_1" xmlns="http://www.w3.org/2000/svg" xmlns:xlink="http://www.w3.org/1999/xlink" viewBox="0 0 544.527 544.527" xml:space="preserve" stroke="#cd7a2d"><g id="SVGRepo_bgCarrier" stroke-width="0"></g><g id="SVGRepo_tracerCarrier" stroke-linecap="round" stroke-linejoin="round"></g><g id="SVGRepo_iconCarrier"> <g> <g> <polygon points="286.334,234.111 148.331,234.111 152.68,286.132 281.986,286.132 "></polygon> <polygon points="144.993,384.052 138.331,301.432 22.951,301.432 44.117,384.052 "></polygon> <polygon points="146.278,399.352 48.199,399.352 60.916,448.312 150.284,448.312 "></polygon> <path d="M424.71,253.111c16.849-16.87,33.694-34.299,50.542-49.6h43.568c27.54,0,27.54-48.96,0-48.96h-52.381 c-5.125,0-9.36,1.799-12.741,4.045c-1.983,1.077-3.927,2.708-5.777,4.56c-21.105,21.132-42.21,42.402-63.318,63.535 c-2.312,2.316-3.95,4.36-5.067,7.42h-77.567l-4.349,52.021h118.178L424.71,253.111z"></path> <polygon points="18.869,286.132 137.046,286.132 132.698,234.111 5.053,234.111 "></polygon> <polygon points="268.748,448.312 272.754,399.352 161.912,399.352 165.914,448.312 "></polygon> <polygon points="411.715,301.432 296.334,301.432 289.67,384.052 390.549,384.052 "></polygon> <polygon points="386.467,399.352 288.385,399.352 284.382,448.312 373.749,448.312 "></polygon> <polygon points="280.701,301.432 153.965,301.432 160.626,384.052 274.036,384.052 "></polygon> <circle cx="108.117" cy="503.339" r="41.188"></circle> <circle cx="326.546" cy="503.339" r="41.188"></circle> <path d="M125.351,171.366l3.418-29.707c121.029,13.926,163.694,52.405,163.694,52.405S290.615,46.846,141.651,29.707L145.069,0 L5.506,70.759L125.351,171.366z"></path> </g> </g> </g></svg>